:SAMPLES-PER-SECOND 30
:FULLY-SPECIFIED
:DEGREES
339
root  11.0802 40.614 -6.87579 -153.346 -84.0545 152.983
RightUpLeg  -2.64017 -12.3184 -14.5619
RightLeg  3.48129 -4.92821 2.34815
RightFoot  3.72783 -0.828921 6.44522
RightToes  0.00048216 0.542163 -0.142577
Spine  6.97919 -1.68462 -2.46965
Spine1  10.5387 -1.57796 -1.21027
HEad  -19.5314 5.55676 1.80233
LeftShoulder1  11.4266 -15.8959 -51.4082
LeftArm  2.39605 -2.48857 -23.4303
LeftForeArm  38.02 -11.3163 -7.99241
LeftHand  -0.25398 0.0180481 5.50724
RightShoulder  7.04743 11.4202 41.0216
RightArm  8.26484 6.19201 37.2143
RightForeArm  31.6439 9.75843 8.65106
RightHand  -1.17745 6.45765 -11.9109
LeftUpLeg  0.160061 6.07758 5.32223
LeftLeg  1.83929 13.0391 -3.32348
LeftFoot  0.328309 0.369011 -3.6072
LeftToes  1.06241e-005 4.65855e-005 -8.18508e-006
340
root  11.0211 40.6163 -6.88456 -153.403 -84.0167 153.071
RightUpLeg  -2.57654 -12.2966 -14.566
RightLeg  3.46273 -4.89819 2.32608
RightFoot  3.64224 -0.836698 6.51033
RightToes  0.00048216 0.542163 -0.142577
Spine  6.83651 -1.65715 -2.34467
Spine1  10.4163 -1.60178 -0.996127
HEad  -19.7008 5.98519 1.88778
LeftShoulder1  11.379 -15.8424 -51.337
LeftArm  2.1997 -1.53806 -23.2685
LeftForeArm  37.6902 -11.4373 -7.89395
LeftHand  -0.25398 0.0180481 5.50724
RightShoulder  6.9224 11.2033 40.8774
RightArm  5.0212 5.36448 36.056
RightForeArm  31.866 8.74504 8.41934
RightHand  -1.18787 6.37984 -12.0859
LeftUpLeg  0.270691 6.02085 5.29228
LeftLeg  1.74786 13.1271 -3.2813
LeftFoot  0.288289 0.37216 -3.6491
LeftToes  1.06241e-005 4.65855e-005 -8.18508e-006
341
root  10.9621 40.6181 -6.89205 -153.118 -84.0656 152.841
RightUpLeg  -2.46596 -12.2664 -14.572
RightLeg  3.35581 -4.96698 2.31115
RightFoot  3.5912 -0.854535 6.68535
RightToes  0.00048216 0.542163 -0.142577
Spine  6.55511 -1.6848 -2.15822
Spine1  10.4492 -1.64901 -0.889584
HEad  -19.8332 6.25251 2.03977
LeftShoulder1  11.3148 -15.7986 -51.1663
LeftArm  1.75254 -0.667717 -23.2869
LeftForeArm  37.8726 -11.4828 -7.76469
LeftHand  -0.25398 0.0180481 5.50724
RightShoulder  6.80818 11.0108 40.7249
RightArm  2.84053 4.64941 34.9909
RightForeArm  30.826 8.0368 8.23174
RightHand  -1.24731 6.42996 -12.6123
LeftUpLeg  0.317163 5.96562 5.267
LeftLeg  1.70307 13.1195 -3.23121
LeftFoot  0.24918 0.375494 -3.69565
LeftToes  1.06241e-005 4.65855e-005 -8.18508e-006
342
root  10.9013 40.6212 -6.90223 -152.582 -84.2238 152.296
RightUpLeg  -2.22928 -12.2541 -14.5885
RightLeg  3.21772 -5.11554 2.32651
RightFoot  3.54573 -0.861757 6.77497
RightToes  0.00048216 0.542163 -0.142577
Spine  6.2076 -1.76528 -1.93865
Spine1  10.6699 -1.73013 -0.853484
HEad  -20.0548 6.50948 2.32381
LeftShoulder1  11.2499 -15.7491 -51.0059
LeftArm  1.43646 0.0335118 -23.2732
LeftForeArm  38.088 -11.5396 -7.64965
LeftHand  -0.25398 0.0180481 5.50724
RightShoulder  6.77464 10.9399 40.7229
RightArm  1.45979 3.95676 33.8456
RightForeArm  29.4592 7.80324 8.05691
RightHand  -1.33744 6.67498 -13.2316
LeftUpLeg  0.415867 5.96165 5.2975
LeftLeg  1.66412 12.9473 -3.22237
LeftFoot  0.214281 0.37861 -3.74041
LeftToes  1.06241e-005 4.65855e-005 -8.18508e-006
343
root  10.8359 40.6259 -6.91562 -152.48 -84.3708 152.143
RightUpLeg  -1.96158 -12.2264 -14.568
RightLeg  3.11307 -5.25235 2.34253
RightFoot  3.48612 -0.850947 6.71537
RightToes  0.00048216 0.542163 -0.142577
Spine  5.76681 -1.7972 -1.75046
Spine1  11.0583 -1.78307 -0.73573
HEad  -20.2964 6.72299 2.69712
LeftShoulder1  11.2313 -15.6929 -51.07
LeftArm  1.44838 0.490578 -23.0882
LeftForeArm  37.937 -11.6336 -7.59623
LeftHand  -0.25398 0.0180481 5.50724
RightShoulder  6.75173 10.8727 40.7794
RightArm  0.612444 3.40796 32.7288
RightForeArm  28.5573 7.88303 7.89482
RightHand  -1.36064 6.70947 -13.4145
LeftUpLeg  0.589154 6.03364 5.40508
LeftLeg  1.60892 12.7245 -3.2716
LeftFoot  0.17103 0.380384 -3.76574
LeftToes  1.06241e-005 4.65855e-005 -8.18508e-006
344
root  10.7684 40.6295 -6.9275 -152.792 -84.4124 152.474
RightUpLeg  -1.84857 -12.1902 -14.5207
RightLeg  3.09502 -5.31144 2.33885
RightFoot  3.39648 -0.83496 6.62863
RightToes  0.00048216 0.542163 -0.142577
Spine  5.15611 -1.7401 -1.66195
Spine1  11.5228 -1.78808 -0.464907
HEad  -20.3272 6.77336 3.09488
LeftShoulder1  11.2533 -15.6221 -51.3546
LeftArm  1.529 0.702394 -22.8685
LeftForeArm  37.5853 -11.6055 -7.63106
LeftHand  -0.25398 0.0180481 5.50724
RightShoulder  6.66891 10.7075 40.745
RightArm  0.332582 3.17973 31.8369
RightForeArm  28.2277 7.92113 7.83673
RightHand  -1.30669 6.44303 -13.1764
LeftUpLeg  0.70663 6.10813 5.50243
LeftLeg  1.5641 12.6149 -3.32406
LeftFoot  0.112305 0.381569 -3.7832
LeftToes  1.06241e-005 4.65855e-005 -8.18508e-006
345
root  10.704 40.6302 -6.93572 -152.746 -84.4005 152.524
RightUpLeg  -1.88359 -12.2098 -14.5224
RightLeg  3.17152 -5.29913 2.34655
RightFoot  3.27037 -0.821428 6.57435
RightToes  0.00048216 0.542163 -0.142577
Spine  4.423 -1.678 -1.68307
Spine1  11.9822 -1.8038 -0.150897
HEad  -20.0703 6.7197 3.49736
LeftShoulder1  11.2484 -15.5244 -51.5908
LeftArm  1.30093 0.739734 -22.849
LeftForeArm  37.5113 -11.3212 -7.72349
LeftHand  -0.25398 0.0180481 5.50724
RightShoulder  6.58261 10.549 40.6654
RightArm  0.625875 3.20839 31.1974
RightForeArm  28.3192 7.84807 7.91031
RightHand  -1.2965 6.41625 -13.1048
LeftUpLeg  0.717654 6.11014 5.50734
LeftLeg  1.55239 12.6204 -3.32794
LeftFoot  0.045158 0.383822 -3.81842
LeftToes  1.06241e-005 4.65855e-005 -8.18508e-006
346
root  10.6432 40.6304 -6.94449 -152.195 -84.4402 152.014
RightUpLeg  -1.8445 -12.2873 -14.5879
RightLeg  3.2619 -5.27619 2.38896
RightFoot  3.13459 -0.805894 6.50727
RightToes  0.00048216 0.542163 -0.142577
Spine  3.7245 -1.67654 -1.73525
Spine1  12.4298 -1.8632 0.0841404
HEad  -19.6634 6.67322 3.88504
LeftShoulder1  11.1986 -15.4265 -51.6273
LeftArm  0.755402 0.670834 -23.0635
LeftForeArm  37.9511 -10.8683 -7.80441
LeftHand  -0.25398 0.0180481 5.50724
RightShoulder  6.5615 10.5212 40.611
RightArm  1.14463 3.26005 30.7919
RightForeArm  28.5759 7.86575 8.00814
RightHand  -1.38294 6.85957 -13.4677
LeftUpLeg  0.755159 6.07393 5.47271
LeftLeg  1.56152 12.6033 -3.29694
LeftFoot  -0.0242378 0.38687 -3.86697
LeftToes  1.06241e-005 4.65855e-005 -8.18508e-006
347
root  10.585 40.6302 -6.95728 -151.702 -84.553 151.437
RightUpLeg  -1.60832 -12.3383 -14.6472
RightLeg  3.27102 -5.30855 2.43205
RightFoot  3.02409 -0.793016 6.44972
RightToes  0.00048216 0.542163 -0.142577
Spine  3.1405 -1.69767 -1.72488
Spine1  12.8758 -1.93017 0.25554
HEad  -19.1923 6.53189 4.2247
LeftShoulder1  11.1691 -15.3854 -51.6038
LeftArm  0.313833 0.531877 -23.354
LeftForeArm  38.6005 -10.4713 -7.85681
LeftHand  -0.25398 0.0180481 5.50724
RightShoulder  6.56399 10.5647 40.4912
RightArm  1.42171 3.24505 30.7118
RightForeArm  28.6572 8.01526 8.03296
RightHand  -1.45271 7.19442 -13.7679
LeftUpLeg  0.917499 6.0712 5.49282
LeftLeg  1.56821 12.4894 -3.26946
LeftFoot  -0.0907144 0.389404 -3.90834
LeftToes  1.06241e-005 4.65855e-005 -8.18508e-006
348
root  10.5326 40.6298 -6.97172 -151.437 -84.6744 151.048
RightUpLeg  -1.31708 -12.3247 -14.6652
RightLeg  3.22377 -5.39622 2.43528
RightFoot  2.93233 -0.791098 6.47354
RightToes  0.00048216 0.542163 -0.142577
Spine  2.61814 -1.69696 -1.65201
Spine1  13.2921 -1.97642 0.427413
HEad  -18.6337 6.15674 4.5078
LeftShoulder1  11.1914 -15.408 -51.6441
LeftArm  0.325824 0.362691 -23.6246
LeftForeArm  38.8865 -10.3062 -7.91289
LeftHand  -0.25398 0.0180481 5.50724
RightShoulder  6.53074 10.5627 40.2738
RightArm  1.37792 3.25958 30.9786
RightForeArm  28.4435 8.20824 7.99704
RightHand  -1.40798 7.00383 -13.5511
LeftUpLeg  1.12442 6.09634 5.5527
LeftLeg  1.55566 12.3457 -3.25858
LeftFoot  -0.139491 0.391582 -3.94479
LeftToes  1.06241e-005 4.65855e-005 -8.18508e-006
349
root  10.4908 40.6295 -6.98426 -151.128 -84.7262 150.673
RightUpLeg  -1.16169 -12.3072 -14.685
RightLeg  3.23676 -5.44576 2.41062
RightFoot  2.82944 -0.794836 6.54929
RightToes  0.00048216 0.542163 -0.142577
Spine  2.10809 -1.68756 -1.58677
Spine1  13.648 -2.00907 0.582578
HEad  -18.0621 5.6826 4.75909
LeftShoulder1  11.2114 -15.4298 -51.6762
LeftArm  0.68348 0.210751 -23.9124
LeftForeArm  38.5767 -10.469 -7.93364
LeftHand  -0.25398 0.0180481 5.50724
RightShoulder  6.49289 10.5208 40.1498
RightArm  1.37728 3.35331 31.4039
RightForeArm  28.1061 8.58012 7.93248
RightHand  -1.32698 6.70274 -13.104
LeftUpLeg  1.27537 6.10401 5.57532
LeftLeg  1.51176 12.2735 -3.26547
LeftFoot  -0.162571 0.394075 -3.98664
LeftToes  1.06241e-005 4.65855e-005 -8.18508e-006
